<svg
    width="48"
    height="48"
    viewBox="0 0 48 48"
    fill="none"
    xmlns="http://www.w3.org/2000/svg"
>
    <path
        d="M22.5 32.5H25.5L24 34L22.5 32.5Z"
        stroke="white"
        stroke-width="2"
        stroke-linecap="round"
        stroke-linejoin="round"
    />
    <path
        d="M32 28V29"
        stroke="white"
        stroke-width="2"
        stroke-linecap="round"
        stroke-linejoin="round"
    />
    <path
        d="M8.84 22.4941C8.28026 24.6556 7.99799 26.8794 8 29.1121C8 37.4561 15.164 42.0001 24 42.0001C32.836 42.0001 40 37.4561 40 29.1121C39.99 26.8703 39.6579 24.6415 39.014 22.4941"
        stroke="white"
        stroke-width="2"
        stroke-linecap="round"
        stroke-linejoin="round"
    />
    <path
        d="M16 28V29"
        stroke="white"
        stroke-width="2"
        stroke-linecap="round"
        stroke-linejoin="round"
    />
    <path
        d="M17 16.9999C16.232 19.0999 14.834 21.0559 12.312 21.9999C8.44999 23.4439 5.15999 21.4059 4.99999 19.9999C4.77399 18.0119 7.35399 6.93994 13 5.99994C16.846 5.35794 20.302 7.68994 20.302 10.4699C22.8316 9.8275 25.485 9.85645 28 10.5539C28 7.77394 31.688 5.35794 35.534 5.99994C41.18 6.93994 43.76 18.0119 43.534 19.9999C43.374 21.4059 40.084 23.4439 36.222 21.9999C33.7 21.0559 32.512 19.0999 31.744 16.9999"
        stroke="white"
        stroke-width="2"
        stroke-linecap="round"
        stroke-linejoin="round"
    />
</svg>
