<svg
    width="77"
    height="77"
    viewBox="0 0 77 77"
    fill="none"
    xmlns="http://www.w3.org/2000/svg"
>
    <circle cx="38.5" cy="38.5" r="38" fill="#3A3A78" stroke="white" />
    <circle cx="38.5" cy="28.5" r="22" fill="#3A3A78" stroke="white" />
    <mask id="path-3-inside-1_104_636" fill="white">
        <path
            d="M38.3652 53C42.3049 53 46.2059 53.647 49.8457 54.9033C53.4854 56.1597 56.7924 58.0009 59.5781 60.3223C61.8133 62.1849 63.6771 64.3281 65.1055 66.6689C58.2292 73.0772 49.0061 77 38.8652 77C28.4141 77 18.9371 72.8341 12 66.0742C13.3742 63.9646 15.1078 62.026 17.1523 60.3223C19.938 58.0009 23.2451 56.1597 26.8848 54.9033C30.5245 53.647 34.4256 53 38.3652 53Z"
        />
    </mask>
    <path
        d="M38.3652 53C42.3049 53 46.2059 53.647 49.8457 54.9033C53.4854 56.1597 56.7924 58.0009 59.5781 60.3223C61.8133 62.1849 63.6771 64.3281 65.1055 66.6689C58.2292 73.0772 49.0061 77 38.8652 77C28.4141 77 18.9371 72.8341 12 66.0742C13.3742 63.9646 15.1078 62.026 17.1523 60.3223C19.938 58.0009 23.2451 56.1597 26.8848 54.9033C30.5245 53.647 34.4256 53 38.3652 53Z"
        fill="#3A3A78"
    />
    <path
        d="M38.3652 53V52V53ZM49.8457 54.9033L50.172 53.9581L50.172 53.958L49.8457 54.9033ZM59.5781 60.3223L60.2183 59.554L60.2183 59.554L59.5781 60.3223ZM65.1055 66.6689L65.7872 67.4005L66.384 66.8444L65.9591 66.1481L65.1055 66.6689ZM12 66.0742L11.1621 65.5284L10.7136 66.217L11.3021 66.7904L12 66.0742ZM17.1523 60.3223L16.5122 59.554L16.5122 59.554L17.1523 60.3223ZM26.8848 54.9033L26.5585 53.958L26.5585 53.9581L26.8848 54.9033ZM38.3652 53V54C42.1964 54 45.987 54.6293 49.5194 55.8486L49.8457 54.9033L50.172 53.958C46.4249 52.6646 42.4134 52 38.3652 52V53ZM49.8457 54.9033L49.5194 55.8486C53.0517 57.0679 56.251 58.8514 58.938 61.0905L59.5781 60.3223L60.2183 59.554C57.3339 57.1504 53.919 55.2514 50.172 53.9581L49.8457 54.9033ZM59.5781 60.3223L58.9379 61.0905C61.0935 62.8868 62.8836 64.9475 64.2518 67.1898L65.1055 66.6689L65.9591 66.1481C64.4706 63.7086 62.5332 61.4831 60.2183 59.554L59.5781 60.3223ZM65.1055 66.6689L64.4237 65.9374C57.7251 72.1801 48.743 76 38.8652 76V77V78C49.2692 78 58.7334 73.9743 65.7872 67.4005L65.1055 66.6689ZM38.8652 77V76C28.6853 76 19.4559 71.9434 12.6979 65.358L12 66.0742L11.3021 66.7904C18.4183 73.7248 28.1428 78 38.8652 78V77ZM12 66.0742L12.8379 66.62C14.155 64.5979 15.8209 62.7335 17.7925 61.0905L17.1523 60.3223L16.5122 59.554C14.3947 61.3186 12.5933 63.3312 11.1621 65.5284L12 66.0742ZM17.1523 60.3223L17.7925 61.0905C20.4795 58.8514 23.6787 57.0679 27.2111 55.8486L26.8848 54.9033L26.5585 53.9581C22.8115 55.2514 19.3966 57.1504 16.5122 59.554L17.1523 60.3223ZM26.8848 54.9033L27.2111 55.8486C30.7435 54.6293 34.5341 54 38.3652 54V53V52C34.3171 52 30.3056 52.6646 26.5585 53.958L26.8848 54.9033Z"
        fill="white"
        mask="url(#path-3-inside-1_104_636)"
    />
</svg>
