<svg
    width="48"
    height="48"
    viewBox="0 0 48 48"
    fill="none"
    xmlns="http://www.w3.org/2000/svg"
>
    <path
        d="M26 32C27.1589 31.9985 28.2935 32.3326 29.2666 32.9621C30.2397 33.5915 31.0097 34.4893 31.4835 35.5469C31.9573 36.6046 32.1147 37.7768 31.9366 38.922C31.7585 40.0671 31.2526 41.1362 30.48 42"
        stroke="white"
        stroke-width="2"
        stroke-linecap="round"
        stroke-linejoin="round"
    />
    <path
        d="M36 24H36.02"
        stroke="white"
        stroke-width="2"
        stroke-linecap="round"
        stroke-linejoin="round"
    />
    <path
        d="M36 41.9998H20C17.8783 41.9998 15.8434 41.157 14.3431 39.6567C12.8429 38.1564 12 36.1216 12 33.9998C12 30.2868 13.475 26.7259 16.1005 24.1003C18.726 21.4748 22.287 19.9998 26 19.9998H26.4L19.2 12.7998C18.8323 12.4321 18.5406 11.9956 18.3416 11.5152C18.1426 11.0348 18.0402 10.5198 18.0402 9.99984C18.0402 8.94963 18.4574 7.94244 19.2 7.19984C19.9426 6.45723 20.9498 6.04004 22 6.04004C22.52 6.04004 23.0349 6.14246 23.5153 6.34146C23.9958 6.54046 24.4323 6.83214 24.8 7.19984L31.6 13.9998H32C38.6 13.9998 44 19.3998 44 25.9998V27.9998C44 29.0607 43.5786 30.0781 42.8284 30.8283C42.0783 31.5784 41.0609 31.9998 40 31.9998H38C36.4087 31.9998 34.8826 32.632 33.7574 33.7572C32.6321 34.8824 32 36.4085 32 37.9998"
        stroke="white"
        stroke-width="2"
        stroke-linecap="round"
        stroke-linejoin="round"
    />
    <path
        d="M40 17.08V8C40 6.93913 39.5786 5.92172 38.8284 5.17157C38.0783 4.42143 37.0609 4 36 4C34.9391 4 33.9217 4.42143 33.1716 5.17157C32.4214 5.92172 32 6.93913 32 8V14"
        stroke="white"
        stroke-width="2"
        stroke-linecap="round"
        stroke-linejoin="round"
    />
    <path
        d="M15.224 25.0479C14.6616 24.0526 13.8265 23.2386 12.8172 22.7019C11.8078 22.1652 10.6661 21.928 9.5264 22.0182C8.38675 22.1085 7.29661 22.5225 6.38432 23.2115C5.47202 23.9004 4.77553 24.8357 4.37685 25.9071C3.97817 26.9786 3.8939 28.1416 4.13394 29.2593C4.37398 30.3771 4.92836 31.403 5.7318 32.2163C6.53524 33.0295 7.55431 33.5964 8.66903 33.85C9.78376 34.1036 10.9478 34.0335 12.024 33.6479"
        stroke="white"
        stroke-width="2"
        stroke-linecap="round"
        stroke-linejoin="round"
    />
</svg>
